<?xml version="1.0" standalone="no"?>
<!DOCTYPE svg PUBLIC "-//W3C//DTD SVG 20010904//EN"
 "http://www.w3.org/TR/2001/REC-SVG-20010904/DTD/svg10.dtd">
<svg version="1.0" xmlns="http://www.w3.org/2000/svg"
 width="512.000000pt" height="512.000000pt" viewBox="0 0 512.000000 512.000000"
 preserveAspectRatio="xMidYMid meet">

<g transform="translate(0.000000,512.000000) scale(0.100000,-0.100000)"
fill="#000000" stroke="none">
<path d="M4649 5091 c-24 -16 -181 -166 -348 -334 l-305 -306 -24 20 c-35 27
-86 39 -125 28 -49 -13 -213 -183 -222 -229 -7 -39 7 -85 35 -115 20 -21 19
-21 -50 -90 l-70 -69 -45 44 c-51 50 -92 57 -127 22 -35 -35 -28 -76 23 -128
l43 -44 -76 -77 -76 -76 -48 42 c-40 35 -54 41 -82 39 -45 -4 -78 -44 -68 -83
4 -14 24 -45 46 -69 l39 -42 -182 -180 -182 -181 -35 13 c-47 17 -109 17 -157
0 l-40 -14 -54 55 c-68 68 -95 83 -158 83 -42 0 -56 -5 -98 -39 -26 -21 -463
-455 -970 -962 -807 -809 -923 -929 -934 -966 -18 -64 -1 -110 72 -188 59 -62
61 -66 50 -96 -14 -41 -14 -127 0 -168 l11 -32 -240 -243 c-323 -325 -319
-301 -83 -538 234 -235 214 -237 528 75 128 127 236 243 242 258 7 20 5 36 -7
61 -15 28 -23 33 -57 36 -40 3 -41 2 -260 -218 l-220 -220 -117 117 -118 118
221 221 221 221 36 -13 c189 -67 380 111 328 306 -14 53 -14 56 7 77 21 22 23
22 72 7 114 -35 241 21 297 130 27 53 34 140 15 193 -14 41 -14 42 12 66 24
22 28 23 56 11 109 -48 271 23 320 139 19 46 21 132 5 182 -11 35 -10 39 13
62 19 20 28 23 43 15 40 -21 111 -24 168 -8 136 40 217 190 173 319 -15 44
-15 46 8 67 21 20 28 21 56 11 45 -16 128 -14 180 4 57 20 123 86 144 144 18
51 20 135 4 180 -10 29 -9 35 12 57 23 22 26 23 64 9 128 -46 280 33 319 166
19 64 20 102 1 154 l-15 40 180 180 180 180 117 -118 118 -117 -1238 -1238
c-878 -879 -1237 -1243 -1237 -1259 0 -12 3 -29 6 -38 8 -20 56 -45 86 -45 17
0 339 317 1258 1234 l1235 1235 48 -45 c54 -49 81 -54 121 -23 41 32 36 75
-16 133 l-41 48 76 76 77 76 43 -42 c50 -49 100 -57 132 -22 32 35 23 76 -25
125 l-44 45 69 70 c69 69 69 70 90 50 30 -28 76 -42 115 -35 46 9 216 173 229
222 11 39 -1 91 -28 125 l-19 23 119 122 c132 134 142 156 94 207 -45 48 -65
39 -202 -96 l-123 -122 -118 117 -117 117 127 127 127 127 45 -42 c53 -49 102
-56 136 -22 35 35 26 79 -25 130 l-45 44 127 128 128 128 117 -117 118 -118
-90 -90 c-76 -76 -90 -95 -90 -122 0 -42 33 -73 77 -73 28 0 47 13 120 83 131
125 160 181 132 254 -14 36 -283 308 -325 328 -47 22 -85 18 -135 -14z m-534
-981 l230 -230 -50 -50 -50 -50 -232 232 -233 233 47 47 c26 27 50 48 53 48 3
0 109 -103 235 -230z m-207 -208 l111 -119 -65 -64 -64 -64 -117 118 -118 117
65 65 c35 36 67 65 71 65 3 0 56 -53 117 -118z m-247 -243 l112 -120 -74 -75
-74 -74 -117 117 -118 118 77 77 c43 43 78 78 79 78 1 0 53 -54 115 -121z
m-1240 -455 l47 -47 -14 -40 c-17 -49 -17 -110 0 -159 13 -35 12 -38 -14 -63
-24 -23 -30 -24 -56 -15 -39 15 -122 15 -168 0 -38 -12 -38 -12 -87 36 l-49
48 142 143 c79 79 145 143 148 143 2 0 25 -21 51 -46z m319 -79 c37 -19 50
-43 50 -92 0 -53 -42 -95 -94 -95 -97 0 -140 100 -72 168 38 38 70 43 116 19z
m-679 -395 c-14 -41 -14 -140 -1 -176 9 -23 7 -31 -16 -55 -25 -26 -27 -27
-60 -13 -41 17 -117 17 -166 0 l-37 -13 -48 49 -47 48 144 145 145 145 49 -49
c47 -47 48 -50 37 -81z m304 -13 c18 -15 28 -36 32 -64 5 -39 2 -46 -30 -78
-39 -39 -70 -44 -117 -20 -57 29 -68 102 -24 154 22 26 33 31 69 31 31 0 52
-7 70 -23z m-734 -303 l47 -46 -14 -45 c-18 -59 -18 -100 0 -151 14 -39 14
-41 -13 -66 -26 -25 -27 -25 -76 -10 -52 16 -116 12 -162 -9 -21 -9 -29 -6
-73 38 l-50 49 142 143 c79 79 145 143 148 143 2 0 25 -21 51 -46z m328 -80
c30 -21 51 -71 44 -107 -8 -39 -57 -77 -99 -77 -46 0 -70 14 -89 50 -24 46
-19 78 19 116 39 39 85 45 125 18z m-688 -394 c-14 -42 -14 -128 0 -169 10
-30 9 -35 -13 -58 -23 -23 -29 -24 -64 -14 -51 14 -123 14 -163 0 -31 -11 -35
-10 -82 37 l-49 48 142 143 143 143 49 -49 c47 -47 48 -50 37 -81z m310 -19
c21 -21 29 -39 29 -64 0 -70 -83 -127 -141 -97 -98 50 -67 190 41 190 33 0 48
-6 71 -29z m-738 -299 l46 -47 -14 -40 c-18 -51 -18 -90 -1 -148 13 -44 13
-46 -13 -71 -25 -24 -28 -25 -66 -11 -51 18 -99 18 -150 0 l-40 -15 -50 50
-50 50 140 140 c77 77 142 140 145 140 3 0 27 -21 53 -48z m339 -91 c27 -24
33 -36 33 -71 0 -56 -46 -100 -103 -100 -93 0 -133 114 -60 175 41 35 88 33
130 -4z m-389 -401 c37 -41 37 -89 -2 -132 -24 -27 -36 -33 -71 -33 -82 0
-129 96 -79 159 43 54 105 57 152 6z"/>
</g>
</svg>
