<?xml version="1.0" standalone="no"?>
<!DOCTYPE svg PUBLIC "-//W3C//DTD SVG 20010904//EN"
 "http://www.w3.org/TR/2001/REC-SVG-20010904/DTD/svg10.dtd">
<svg version="1.0" xmlns="http://www.w3.org/2000/svg"
 width="512.000000pt" height="512.000000pt" viewBox="0 0 512.000000 512.000000"
 preserveAspectRatio="xMidYMid meet">

<g transform="translate(0.000000,512.000000) scale(0.100000,-0.100000)"
fill="#000000" stroke="none">
<path d="M2617 4469 c-21 -5 -52 -16 -70 -25 -18 -9 -219 -202 -447 -428 -366
-364 -420 -414 -459 -425 -55 -16 -95 -55 -112 -109 -12 -42 -12 -42 -61 -42
-41 0 -54 -5 -79 -29 -25 -25 -29 -37 -29 -83 0 -49 -3 -57 -38 -91 l-38 -37
-293 0 -293 0 -29 -29 -29 -29 0 -161 c0 -197 -14 -247 -94 -327 -68 -67 -138
-94 -247 -94 -76 0 -82 -2 -110 -29 l-29 -29 0 -262 0 -262 29 -29 c27 -27 35
-29 104 -29 84 0 124 -19 164 -79 l23 -34 0 -554 0 -555 29 -29 29 -29 145 0
c128 0 148 2 168 19 l24 19 5 570 c5 557 6 571 26 598 49 66 58 69 265 72
l189 3 0 -560 c0 -499 -2 -561 -15 -561 -9 0 -27 -11 -40 -25 -21 -20 -25 -34
-25 -80 0 -44 3 -55 17 -55 14 0 14 -2 -3 -21 -19 -21 -18 -21 5 -40 23 -19
23 -19 2 -19 -28 0 -27 -25 4 -55 l24 -25 540 0 c375 0 548 3 564 11 37 17 47
50 47 149 0 102 -11 134 -51 151 l-29 11 0 559 0 559 184 0 c174 0 185 -1 217
-23 18 -12 44 -38 56 -56 l23 -34 0 -554 0 -555 29 -29 29 -29 145 0 c128 0
148 2 168 19 l24 19 5 570 c5 557 6 571 26 598 11 15 33 37 48 48 26 20 44 21
389 26 199 3 369 9 378 13 24 12 39 52 39 102 0 41 2 45 24 45 31 0 85 -38
113 -79 l23 -34 0 -634 0 -635 29 -29 29 -29 147 0 c142 0 147 1 170 25 l25
24 0 631 c0 510 3 637 14 663 18 44 68 85 114 92 60 10 89 25 101 51 15 35 16
993 0 1027 -6 14 -22 30 -36 36 -16 7 -149 11 -406 12 -348 0 -377 2 -330 14
159 43 265 159 295 325 29 153 -62 339 -200 409 -89 45 -138 51 -454 51 -283
0 -299 1 -318 20 -28 28 -34 63 -17 96 9 16 65 78 126 139 101 100 111 113
111 147 0 28 -6 42 -26 57 -26 21 -35 21 -533 20 -278 -1 -523 -5 -544 -10z
m261 -1551 c-3 -106 -7 -130 -28 -173 -31 -63 -91 -124 -155 -155 l-50 -25
-882 -3 -883 -2 0 240 0 240 1001 0 1001 0 -4 -122z m-478 -598 l0 -80 -1040
0 -1040 0 0 80 0 80 1040 0 1040 0 0 -80z m-240 -960 l0 -560 -280 0 -280 0 0
560 0 560 280 0 280 0 0 -560z m-546 -741 c-19 -21 -18 -21 5 -40 l24 -20 -99
3 c-95 3 -99 4 -102 26 -7 48 1 52 99 52 l92 0 -19 -21z m320 0 c-19 -21 -18
-21 5 -40 l24 -20 -99 3 c-95 3 -99 4 -102 26 -7 48 1 52 99 52 l92 0 -19 -21z"/>
<path d="M1650 2787 c-38 -19 -54 -60 -38 -94 25 -52 35 -53 400 -51 327 3
338 4 358 24 29 28 29 79 1 107 -21 22 -27 22 -359 25 -259 2 -343 -1 -362
-11z"/>
</g>
</svg>
