<?xml version="1.0" standalone="no"?>
<!DOCTYPE svg PUBLIC "-//W3C//DTD SVG 20010904//EN"
 "http://www.w3.org/TR/2001/REC-SVG-20010904/DTD/svg10.dtd">
<svg version="1.0" xmlns="http://www.w3.org/2000/svg"
 width="512.000000pt" height="512.000000pt" viewBox="0 0 512.000000 512.000000"
 preserveAspectRatio="xMidYMid meet">

<g transform="translate(0.000000,512.000000) scale(0.100000,-0.100000)"
fill="#000000" stroke="none">
<path d="M983 4696 c-201 -46 -363 -205 -409 -402 -20 -84 -14 -204 12 -284
l19 -55 -85 -51 c-126 -76 -170 -142 -170 -259 0 -63 35 -139 66 -143 20 -3
66 22 371 199 113 66 159 108 189 173 36 77 40 140 14 211 -35 96 -36 129 -6
159 30 31 74 34 105 9 20 -17 387 -761 379 -769 -2 -2 -35 -18 -74 -35 -79
-35 -104 -55 -104 -79 0 -19 1198 -2489 1220 -2515 19 -23 42 -19 126 22 86
43 73 49 133 -57 158 -277 490 -456 811 -437 378 23 690 264 812 627 32 92 32
100 32 270 0 170 0 178 -31 265 -17 50 -54 140 -82 202 -112 246 -121 395 -34
528 48 73 104 133 178 191 68 54 77 57 128 58 157 2 215 194 87 288 -31 22
-1597 438 -1652 438 -156 0 -212 -208 -78 -290 24 -15 38 -30 35 -39 -17 -46
-35 -214 -35 -323 0 -258 40 -360 310 -793 190 -305 190 -306 190 -353 0 -31
-5 -45 -22 -56 -30 -21 -71 -20 -96 2 -11 9 -178 291 -371 626 -261 453 -348
612 -339 618 7 5 26 16 41 24 27 15 30 14 52 -10 13 -14 28 -26 34 -26 20 0
42 13 52 32 8 15 1 35 -36 103 -49 90 -74 116 -106 108 -29 -8 -44 -45 -30
-71 6 -11 11 -23 11 -26 0 -8 -62 -46 -76 -46 -6 0 -39 50 -74 111 -68 119
-68 112 -7 145 26 14 28 13 51 -13 21 -24 27 -26 52 -18 46 16 43 50 -16 149
-45 76 -54 86 -79 86 -47 0 -58 -24 -40 -89 2 -9 -12 -24 -36 -37 l-41 -23
-66 114 -66 115 41 25 42 25 18 -25 c11 -14 29 -25 42 -25 27 0 55 24 55 46 0
16 -72 146 -98 177 -17 20 -53 22 -70 5 -15 -15 -16 -64 -2 -73 15 -9 3 -23
-40 -45 l-39 -20 -54 93 c-87 147 -83 132 -35 161 l41 25 19 -25 c32 -40 88
-27 88 22 0 12 -21 58 -46 103 -51 90 -79 108 -115 75 -20 -18 -21 -37 -5 -75
5 -12 -3 -22 -29 -38 -20 -11 -39 -21 -43 -21 -4 0 -108 176 -232 391 -124
215 -245 416 -270 447 -54 67 -149 133 -234 162 -79 27 -203 34 -283 16z m188
-96 c30 -6 81 -23 114 -40 109 -53 142 -98 394 -535 153 -264 227 -403 221
-409 -27 -27 12 -93 50 -84 6 2 41 -47 76 -109 56 -97 64 -115 54 -133 -15
-28 11 -70 43 -70 17 0 35 -22 84 -108 55 -95 62 -113 56 -145 -7 -43 9 -67
42 -67 19 0 35 -21 88 -111 59 -101 64 -114 54 -139 -9 -24 -8 -33 8 -49 10
-12 28 -21 39 -21 17 0 86 -113 375 -615 195 -338 366 -626 380 -639 33 -31
72 -46 121 -46 144 0 216 139 145 280 -15 30 -91 156 -168 280 -254 406 -296
505 -304 715 -5 127 15 327 35 347 6 6 1236 -311 1309 -337 8 -2 -27 -44 -81
-98 -76 -76 -101 -109 -135 -178 -48 -97 -66 -180 -56 -258 11 -89 51 -213
110 -343 83 -182 96 -233 102 -378 4 -94 1 -142 -11 -194 -84 -358 -369 -605
-731 -632 -297 -23 -613 154 -746 418 l-30 59 93 44 c51 23 94 42 94 42 1 -1
32 -56 69 -122 84 -148 111 -185 135 -185 10 0 111 54 225 120 l207 120 25
-20 c89 -70 231 -33 282 73 66 136 -45 291 -195 274 -95 -10 -167 -93 -167
-192 l0 -50 -173 -99 c-95 -54 -176 -98 -181 -97 -4 1 -116 189 -249 419
l-240 417 32 43 c120 156 0 392 -199 392 -91 0 -184 -58 -224 -139 l-20 -40
-563 1165 c-398 820 -573 1173 -594 1193 -70 67 -179 69 -247 5 -25 -24 -26
-24 -125 -13 -54 6 -100 12 -102 14 -2 2 9 27 23 55 65 128 220 224 371 229
17 1 56 -4 85 -9z m725 -1988 c206 -425 374 -776 374 -781 0 -9 -98 -56 -104
-50 -7 6 -756 1552 -756 1559 0 9 83 49 98 47 8 -1 182 -350 388 -775z m1929
328 c569 -150 793 -214 802 -226 28 -39 4 -88 -43 -87 -45 1 -1587 413 -1603
428 -32 31 -6 95 38 95 9 0 371 -95 806 -210z m-1333 -1558 c92 -191 170 -354
173 -363 4 -11 -8 -22 -45 -39 -27 -13 -52 -22 -54 -19 -8 9 -346 712 -346
721 0 9 76 46 95 47 6 0 85 -156 177 -347z m94 265 l62 2 147 -255 c81 -141
145 -257 143 -259 -1 -2 -42 -21 -89 -43 l-86 -40 -83 172 c-229 475 -212 437
-182 429 15 -5 55 -7 88 -6z"/>
<path d="M3580 2208 c-136 -39 -187 -210 -92 -312 58 -62 144 -81 217 -47 176
80 141 339 -50 364 -22 3 -56 1 -75 -5z"/>
<path d="M3826 1755 c-47 -17 -94 -59 -112 -102 -17 -39 -18 -111 -3 -150 24
-64 109 -122 179 -123 48 0 118 37 154 83 78 99 23 262 -102 297 -48 13 -68
12 -116 -5z"/>
</g>
</svg>
