<?xml version="1.0" standalone="no"?>
<!DOCTYPE svg PUBLIC "-//W3C//DTD SVG 20010904//EN"
 "http://www.w3.org/TR/2001/REC-SVG-20010904/DTD/svg10.dtd">
<svg version="1.0" xmlns="http://www.w3.org/2000/svg"
 width="512.000000pt" height="512.000000pt" viewBox="0 0 512.000000 512.000000"
 preserveAspectRatio="xMidYMid meet">

<g transform="translate(0.000000,512.000000) scale(0.100000,-0.100000)"
fill="#000000" stroke="none">
<path d="M1950 5065 c-135 -38 -244 -153 -227 -241 4 -23 2 -24 -42 -24 -40 0
-49 4 -74 35 -34 43 -84 55 -133 31 -39 -18 -74 -69 -74 -106 0 -56 65 -120
122 -120 29 0 84 33 98 59 9 17 20 21 64 21 l54 0 12 -72 c6 -40 15 -94 19
-120 l8 -48 -51 0 c-46 0 -54 3 -79 35 -34 43 -84 55 -133 31 -39 -18 -74 -69
-74 -106 0 -56 65 -120 122 -120 29 0 84 33 98 59 9 18 20 21 69 21 l59 0 7
-41 c7 -41 1 -492 -11 -851 l-6 -178 -42 -10 c-142 -36 -290 -122 -380 -222
-179 -197 -242 -549 -155 -868 31 -115 48 -143 89 -151 177 -36 129 -451 -65
-564 -24 -14 -63 -29 -86 -33 -44 -7 -44 -8 -91 -102 -172 -344 -210 -627
-113 -821 94 -186 323 -361 579 -444 188 -60 261 -70 531 -70 222 1 262 3 354
23 362 79 640 266 751 503 91 196 50 473 -118 808 l-47 95 -55 13 c-151 37
-259 207 -248 393 6 100 36 156 104 191 42 21 50 31 70 85 43 117 57 208 57
374 0 134 -4 168 -26 252 -72 274 -253 457 -523 533 l-62 17 -6 182 c-16 495
-18 796 -6 880 l13 86 53 0 c44 0 55 -4 64 -21 14 -26 69 -59 98 -59 57 0 122
64 122 120 0 37 -35 88 -74 106 -49 24 -99 12 -133 -31 -24 -30 -34 -35 -70
-35 -28 0 -43 4 -43 13 0 6 7 60 16 120 l17 107 48 0 c38 0 51 -4 59 -21 15
-27 69 -59 100 -59 56 0 120 65 120 122 0 35 -36 86 -74 104 -49 24 -99 12
-133 -31 -25 -31 -33 -35 -74 -35 -42 0 -48 3 -59 30 -7 17 -35 50 -62 75 -87
78 -218 110 -328 80z m234 -3241 c9 -8 16 -19 16 -24 0 -5 -7 -16 -16 -24 -23
-23 -265 -23 -288 0 -9 8 -16 19 -16 24 0 5 7 16 16 24 23 23 265 23 288 0z"/>
<path d="M3709 3981 c-22 -18 -24 -28 -27 -121 -4 -116 6 -153 49 -170 l29
-12 0 -1358 0 -1358 -29 -11 c-46 -20 -51 -45 -51 -259 0 -178 2 -200 20 -229
31 -52 65 -63 190 -63 l110 0 0 -32 c0 -62 62 -128 120 -128 34 0 79 29 100
63 20 31 20 64 20 1777 0 1710 0 1746 -20 1777 -10 17 -28 37 -40 43 -20 11
-406 100 -434 100 -7 0 -24 -9 -37 -19z m291 -1741 l0 -1440 -40 0 -40 0 0 45
c0 58 -16 91 -51 106 l-29 11 0 1359 0 1359 80 0 80 0 0 -1440z m160 -1160 l0
-120 -40 0 -40 0 0 120 0 120 40 0 40 0 0 -120z"/>
</g>
</svg>
